<svg version="1.1" id="Layer_1" xmlns="http://www.w3.org/2000/svg" xmlns:xlink="http://www.w3.org/1999/xlink" x="0px" y="0px"
	 width="100%" viewBox="0 0 1024 1024" enable-background="new 0 0 1024 1024" xml:space="preserve">
<path fill="#ff9100" opacity="1.000000" stroke="none" 
	d="
M580.039673,412.909546 
	C578.006714,416.208069 575.940674,419.022369 573.437439,421.499268 
	C571.617188,423.300446 569.642456,425.220093 566.905457,423.916656 
	C563.792236,422.434021 564.585083,419.398773 564.980347,416.830261 
	C566.249939,408.579315 566.689087,400.393433 565.959167,391.990204 
	C563.004028,357.967377 549.693787,328.408722 528.259705,302.220123 
	C522.768005,295.510315 516.970276,289.067871 510.287598,283.492828 
	C509.081940,282.487000 507.905243,280.626984 506.074707,282.111633 
	C504.553131,283.345703 505.782623,284.895844 506.312286,286.224670 
	C512.776245,302.442169 516.919189,319.229492 516.787170,336.716858 
	C516.581970,363.898834 508.378601,388.084198 488.452148,407.517853 
	C480.461517,415.310913 471.490540,422.042297 463.951508,430.312653 
	C459.193298,435.532440 455.363007,441.280579 453.046143,448.055634 
	C450.971008,454.123718 448.492737,454.978546 442.873047,451.588287 
	C434.311829,446.423401 428.560394,438.731995 424.425934,429.793610 
	C417.716156,415.287781 416.878113,399.921722 418.124573,384.304657 
	C418.401367,380.836945 419.057556,377.400391 419.497803,373.944244 
	C419.644653,372.791199 419.812500,371.509064 418.718994,370.722534 
	C417.417297,369.786224 416.072357,370.313599 415.076202,371.258881 
	C412.542236,373.663422 409.965851,376.053375 407.686127,378.690918 
	C390.887238,398.126465 377.367218,419.305756 373.851318,445.422485 
	C370.345398,471.465088 374.790100,495.473114 393.028473,515.643982 
	C393.802307,516.499756 394.758026,517.266785 394.422607,518.847290 
	C391.075592,519.498657 387.956757,518.020020 384.823059,517.291870 
	C368.752258,513.557678 352.791565,509.433746 338.639343,500.426941 
	C316.982635,486.644012 306.169037,466.073669 302.763428,441.378723 
	C294.265167,379.755798 317.187622,328.540009 356.175018,282.847748 
	C364.078949,273.584534 372.947540,265.227203 381.805145,256.896851 
	C384.803284,254.077164 388.124634,249.705185 392.917816,252.736557 
	C397.709473,255.766998 395.049774,260.531677 393.931366,264.545593 
	C391.556580,273.068573 389.309387,281.567627 391.390503,290.503204 
	C393.488739,299.512299 398.145599,306.784851 406.287140,311.429749 
	C410.841644,314.028229 412.639557,313.123962 413.534485,308.106781 
	C421.253845,264.830811 439.485016,225.755707 461.465363,188.190430 
	C475.481934,164.235489 492.008545,142.114334 510.620422,121.539848 
	C511.402618,120.675171 512.182312,119.807388 512.990234,118.967010 
	C515.306580,116.557426 517.964539,114.918716 521.444214,115.988907 
	C525.088928,117.109856 525.821411,120.336212 526.241577,123.506828 
	C527.225281,130.929337 528.484253,138.260498 530.819397,145.416794 
	C536.617188,163.184738 546.241272,178.944946 556.241333,194.518097 
	C568.841797,214.140915 581.814453,233.540359 591.681152,254.772964 
	C597.861755,268.073181 603.488342,281.569763 607.050049,295.852600 
	C608.430603,301.388794 609.950439,301.873077 614.241577,298.054230 
	C620.118042,292.824585 623.161316,286.130890 623.697876,278.312469 
	C624.446594,267.402710 623.223877,256.714355 620.022827,246.246552 
	C619.145386,243.377304 618.552490,240.454193 618.668335,237.397354 
	C618.781494,234.412506 620.049377,232.224548 622.776733,231.117035 
	C625.577454,229.979721 628.127258,230.851639 629.976501,233.081299 
	C632.524963,236.154083 634.911926,239.370941 637.221985,242.629639 
	C651.595398,262.905853 669.036194,280.745575 683.465698,300.980804 
	C700.904724,325.436310 715.696411,351.146820 721.746216,381.022339 
	C726.903931,406.492462 726.978149,431.821198 719.753723,457.018372 
	C711.756592,484.910339 692.733521,501.717560 666.219055,511.260132 
	C654.108582,515.618652 641.606140,518.266785 628.905090,520.091187 
	C628.134399,520.201904 627.312561,519.956421 625.678101,519.793213 
	C628.757935,515.660034 631.580750,512.071350 634.190857,508.334198 
	C645.100342,492.713898 648.110901,475.129303 646.981323,456.513214 
	C645.588379,433.556854 636.783386,413.265991 624.510864,394.271759 
	C616.525391,381.912720 607.066101,370.725739 596.503723,360.476746 
	C594.309448,358.347504 594.317810,358.338898 589.978577,356.716431 
	C592.429810,376.607574 590.741699,395.474060 580.039673,412.909546 
z"/>
<path fill="#cccccc" opacity="1.000000" stroke="none" 
	d="
M721.090942,613.183838 
	C690.958252,628.985107 658.948242,637.689453 626.009155,643.406128 
	C583.411743,650.798950 540.460388,653.294983 497.282684,652.319885 
	C476.652313,651.853943 456.133942,650.023010 435.632385,647.593689 
	C410.013641,644.558105 384.650757,640.400574 359.795685,633.408386 
	C335.181824,626.484131 311.206512,617.934570 289.838776,603.541260 
	C280.404419,597.186279 271.280609,589.912354 269.276489,577.692566 
	C268.180389,571.009338 268.220245,564.101501 268.171478,557.291931 
	C268.025940,536.967346 267.907074,516.639160 268.134399,496.316345 
	C268.291779,482.248444 275.027405,471.828735 287.418457,465.947357 
	C287.553406,471.200592 285.495758,475.794891 284.921661,480.551849 
	C283.844299,489.479340 286.230377,497.009705 292.112457,503.521149 
	C302.189178,514.676086 315.232544,521.442627 328.741577,527.212769 
	C355.360687,538.582581 383.301422,545.218262 411.834290,549.688354 
	C450.225586,555.702942 488.832306,558.555969 527.669250,557.595154 
	C554.757019,556.925110 581.723083,554.664307 608.586182,550.802429 
	C638.494995,546.502686 667.771240,539.995239 695.812622,528.594849 
	C706.467285,524.263123 716.678467,519.023132 725.887695,511.962524 
	C741.041077,500.344666 744.862671,488.548431 739.165344,470.353668 
	C738.745789,469.013885 737.612976,467.735840 738.387146,466.144897 
	C746.950867,468.267242 757.294189,482.069153 757.295715,491.941315 
	C757.298523,509.920227 758.181091,527.892456 757.495300,545.878784 
	C757.165955,554.518250 758.058044,563.148376 757.585571,571.834412 
	C756.984192,582.888672 751.522766,590.945618 743.684509,597.901428 
	C736.924744,603.900146 729.383911,608.774780 721.090942,613.183838 
M502.688782,613.912109 
	C505.512146,616.399963 508.918701,616.787415 512.498779,616.775085 
	C528.490601,616.719849 544.482605,616.728760 560.474548,616.689514 
	C562.292969,616.685059 564.092407,616.691772 565.866211,615.947327 
	C571.207397,613.705688 575.024353,607.629456 574.165161,602.496887 
	C573.007263,595.580139 568.623901,591.325378 561.669006,591.229370 
	C545.014832,590.999329 528.356506,591.077209 511.700104,590.990112 
	C505.645874,590.958496 501.098999,593.234924 498.551971,598.979675 
	C495.987976,604.762573 498.236237,609.285217 502.688782,613.912109 
M723.931030,561.676331 
	C720.363953,554.305725 714.203369,550.119812 708.150391,550.953979 
	C701.089600,551.927124 694.644897,558.362976 693.547302,566.108337 
	C692.606384,572.748352 695.303284,578.225647 700.435852,582.310791 
	C705.366455,586.235168 710.910522,586.146484 716.332703,583.381653 
	C722.356140,580.310120 727.768982,571.315063 723.931030,561.676331 
z"/>
<path fill="#cccccc" opacity="1.000000" stroke="none" 
	d="
M757.965332,696.667725 
	C757.841125,709.709045 751.524170,718.767578 741.825500,726.053955 
	C726.155579,737.826538 708.347778,745.173279 689.938721,751.217163 
	C660.129028,761.004028 629.478638,766.745728 598.362305,770.554077 
	C565.883179,774.529175 533.307983,775.494690 500.669678,774.948914 
	C451.807922,774.131836 403.451843,768.987000 356.136841,756.215759 
	C332.447357,749.821472 309.340088,741.854736 288.571045,728.323730 
	C284.520935,725.685120 280.611786,722.828552 277.234283,719.342163 
	C271.819458,713.752686 268.618591,707.238953 268.585602,699.252441 
	C268.503754,679.437378 268.253967,659.623108 268.128357,639.808167 
	C268.073364,631.127869 271.344574,623.907104 278.099518,618.391846 
	C280.656372,616.304321 282.537109,615.717529 283.508331,620.158508 
	C284.572479,625.024170 288.168091,628.513977 291.878204,631.674805 
	C302.981812,641.134460 316.175629,646.759338 329.652435,651.662048 
	C360.748718,662.974487 392.981323,669.336731 425.709839,673.801819 
	C467.281097,679.473267 509.046875,680.200867 550.791626,678.421082 
	C598.538452,676.385376 645.879822,670.682861 691.374390,654.783508 
	C706.004333,649.670654 720.444702,644.081848 732.646423,634.023010 
	C738.278137,629.380310 743.200073,624.387207 744.169128,616.730469 
	C750.622803,618.470154 757.167786,627.822754 757.299744,635.801697 
	C757.632690,655.933899 757.766418,676.069519 757.965332,696.667725 
M557.383057,739.880615 
	C559.211914,739.816589 561.048889,739.840698 562.868164,739.672668 
	C569.468445,739.062988 574.085205,733.555298 573.898682,726.595520 
	C573.722839,720.034058 568.825989,714.494995 562.408203,714.429199 
	C544.937927,714.249939 527.463989,714.289368 509.992859,714.423767 
	C504.894806,714.462952 501.178864,717.223267 499.051422,721.844666 
	C495.238892,730.126587 500.716125,739.475342 509.995758,739.699158 
	C525.460999,740.072266 540.940613,739.851562 557.383057,739.880615 
M717.940735,681.456970 
	C711.323792,677.218079 706.324402,677.251831 700.470398,681.574829 
	C695.203674,685.464233 692.270203,693.257019 693.848572,699.269836 
	C695.590576,705.906189 699.567017,710.626404 706.323608,712.226440 
	C711.969604,713.563538 716.862549,711.406616 720.643127,707.165588 
	C727.465820,699.511841 726.578796,689.950073 717.940735,681.456970 
z"/>
<path fill="#cccccc" opacity="1.000000" stroke="none" 
	d="
M457.735809,894.374268 
	C432.979614,893.332520 408.945618,890.019104 384.979462,886.181580 
	C358.140015,881.884033 331.849365,875.430725 306.526703,865.399292 
	C297.210480,861.708740 288.340790,857.162231 280.266113,851.129639 
	C271.511536,844.588989 268.082397,835.692627 268.123047,825.062988 
	C268.201385,804.571289 267.673553,784.075012 268.636353,763.590881 
	C269.039307,755.017517 275.513336,745.737976 282.509430,743.983276 
	C287.485260,757.149292 299.119965,762.912720 310.789734,768.227661 
	C338.411652,780.808105 367.796204,787.349792 397.503387,792.686584 
	C447.072876,801.591797 497.144379,803.109070 547.252136,801.429016 
	C596.370361,799.782104 645.037781,793.899048 692.135620,778.728882 
	C701.964783,775.562866 711.799438,772.312317 720.825256,767.210632 
	C730.649536,761.657471 741.039490,756.526062 744.002869,743.397766 
	C751.955872,747.996826 756.595398,754.593018 757.127625,762.747742 
	C758.614014,785.521606 758.301025,808.354858 757.396118,831.163452 
	C757.161316,837.080933 754.393127,841.949707 750.574341,846.339844 
	C740.336670,858.109131 726.561279,864.040771 712.440308,869.248047 
	C688.465820,878.089111 663.589966,883.397827 638.409058,887.350220 
	C609.468750,891.892578 580.373718,894.496277 551.070007,895.596069 
	C522.733398,896.659607 494.456116,896.420532 466.159210,895.152161 
	C463.501404,895.033081 460.855469,894.648315 457.735809,894.374268 
M530.500000,861.979126 
	C541.143005,861.947083 551.793335,862.143494 562.426453,861.802917 
	C569.538025,861.575073 574.021484,856.339661 573.925720,849.364685 
	C573.824524,841.986511 568.778748,836.432678 561.627686,836.383057 
	C544.497192,836.264160 527.364319,836.259827 510.234253,836.418457 
	C502.852631,836.486816 497.594299,841.669434 497.393280,848.447754 
	C497.184753,855.479126 502.706268,861.529785 510.045013,861.841858 
	C516.520142,862.117126 523.014282,861.946655 530.500000,861.979126 
M716.338196,807.977661 
	C707.394226,804.255127 699.453674,807.324585 695.254089,816.127869 
	C691.081116,824.875427 694.940796,835.470337 703.654419,839.186890 
	C711.419556,842.498901 720.484192,838.341248 723.943176,829.880981 
	C727.031494,822.327209 724.544983,814.632629 716.338196,807.977661 
z"/>
</svg>